# AST/ASF file generated using VICON BodyLanguage
# -----------------------------------------------
:version 1.10
:name VICON
:units
  mass 1.0
  length 0.45
  angle deg
:documentation
   .ast/.asf automatically generated from VICON data using
   VICON BodyBuilder and BodyLanguage model FoxedUp or BRILLIANT.MOD
:root
   order TX TY TZ RX RY RZ
   axis XYZ
   position 0 0 0  
   orientation 0 0 0 
:bonedata
  begin
     id 1 
     name lhipjoint
     direction 0.711131 -0.61297 0.344326 
     length 2.29162 
     axis 0 0 0  XYZ
  end
  begin
     id 2 
     name lfemur
     direction 0.34202 -0.939693 0  
     length 6.71424  
     axis 0 0 20  XYZ
    dof rx ry rz
    limits (-160.0 20.0)
           (-70.0 70.0)
           (-60.0 70.0)
  end
  begin
     id 3 
     name ltibia
     direction 0.34202 -0.939693 0   
     length 6.7087   
     axis 0 0 20   XYZ
    dof rx
    limits (-10.0 170.0)
  end
  begin
     id 4 
     name lfoot
     direction 0.0230374 -0.0632947 0.997729   
     length 1.56743   
     axis -90 7.62852e-016 20   XYZ
    dof rx rz
    limits (-45.0 90.0)
           (-70.0 20.0)
  end
  begin
     id 5 
     name ltoes
     direction 1.53585e-011 -4.21885e-011 1   
     length 0.802914   
     axis -90 7.62852e-016 20   XYZ
    dof rx
    limits (-90.0 20.0)
  end
  begin
     id 6 
     name rhipjoint
     direction -0.733192 -0.592884 0.333043   
     length 2.36925  
     axis 0 0 0  XYZ 
  end
  begin
     id 7 
     name rfemur
     direction -0.34202 -0.939693 0   
     length 6.67027   
     axis 0 0 -20   XYZ
    dof rx ry rz
    limits (-160.0 20.0)
           (-70.0 70.0)
           (-70.0 60.0)
  end
  begin
     id 8 
     name rtibia
     direction -0.34202 -0.939693 0   
     length 6.6862   
     axis 0 0 -20   XYZ
    dof rx
    limits (-10.0 170.0)
 end
 begin
     id 9 
     name rfoot
     direction -0.0949739 -0.260939 0.960672   
     length 1.67698  
     axis -90 -7.62852e-016 -20   XYZ
    dof rx rz
    limits (-45.0 90.0)
           (-20.0 70.0)
  end
  begin
     id 10 
     name rtoes
     direction -1.5353e-011 -4.21868e-011 1   
     length 0.846298   
     axis -90 -7.62852e-016 -20   XYZ
    dof rx
    limits (-90.0 20.0)
  end
  begin
     id 11 
     name lowerback
     direction -0.0206828 0.999785 -0.00109866   
     length 2.04382   
     axis 0 0 0   XYZ
    dof rx ry rz
    limits (-20.0 45.0)
           (-30.0 30.0)
           (-30.0 30.0)
  end
  begin
     id 12 
     name upperback
     direction -0.0105003 0.999727 -0.0208904   
     length 2.04538   
     axis 0 0 0   XYZ
    dof rx ry rz
    limits (-20.0 45.0)
           (-30.0 30.0)
           (-30.0 30.0)
  end
  begin
     id 13 
     name thorax
     direction -0.000416255 0.999808 -0.0196023   
     length 2.0399   
     axis 0 0 0   XYZ
    dof rx ry rz
    limits (-20.0 45.0)
           (-30.0 30.0)
           (-30.0 30.0)
  end
  begin
     id 14 
     name lowerneck
     direction 0.0627861 0.989205 0.13241   
     length 1.46207   
     axis 0 0 0   XYZ
    dof rx ry rz
    limits (-20.0 45.0)
           (-30.0 30.0)
           (-30.0 30.0)
  end
  begin
     id 15 
     name upperneck
     direction 0.00627179 0.994526 0.104303   
     length 1.41419   
     axis 0 0 0   XYZ
    dof rx ry rz
    limits (-20.0 45.0)
           (-30.0 30.0)
           (-30.0 30.0)
  end
  begin
     id 16
     name head
     direction -0.00443838 0.999688 0.0245968  
     length 1.50718  
     axis 0 0 0   XYZ
    dof rx ry rz
    limits (-20.0 45.0)
           (-30.0 30.0)
           (-30.0 30.0)
  end
  begin
     id 17 
     name lclavicle
     direction 0.758742 0.650995 -0.0227258  
     length 2.86888  
     axis 0 0 0   XYZ
    dof ry rz
    limits (-20.0 10.0)
           (0.0 20.0)
  end
  begin
     id 18 
     name lhumerus
     direction 1 -4.48962e-011 1.06664e-027   
     length 4.65776   
     axis -180 -30 -90   XYZ
    dof rx ry rz
    limits (-60.0 90.0)
           (-90.0 90.0)
           (-90.0 90.0)
  end
  begin
     id 19
     name lradius
     direction 1 -4.48968e-011 1.40404e-026   
     length 3.55539   
     axis -180 -30 -90   XYZ
    dof rx
    limits (-10.0 170.0)
  end
  begin
     id 20
     name lwrist
     direction 1 -4.48976e-011 3.32647e-026   
     length 1.77769   
     axis -2.20186e-014 90 90   XYZ
    dof ry
    limits (-180.0 0.0)
 end
  begin
     id 21 
     name lhand
     direction 1 -4.48982e-011 6.65293e-026   
     length 0.707264   
     axis -4.24514e-014 90 90   XYZ
    dof rx rz
    limits (-90.0 90.0)
           (-45.0 45.0)
  end
  begin
     id 22 
     name lfingers
     direction 1 -4.48966e-011 1.33059e-025   
     length 0.570215   
     axis -8.49028e-014 90 90   XYZ
    dof rx
    limits (0.0 90.0)
  end
  begin
     id 23
     name lthumb
     direction 0.707107 -6.3493e-011 0.707107   
     length 0.818718   
     axis -90 45 2.85299e-015   XYZ
    dof rx rz
    limits (-45.0 45.0)
           (-45.0 45.0)
  end
  begin
     id 24 
     name rclavicle
     direction -0.870343 0.482028 -0.100759   
     length 3.2251  
     axis 0 0 0   XYZ 
    dof ry rz
    limits (-10.0 20.0)
           (-20.0 0.0)
  end
  begin
     id 25 
     name rhumerus
     direction -1 -4.48974e-011 -9.45849e-028  
     length 4.71925   
     axis -180 30 90   XYZ
    dof rx ry rz
    limits (-90.0 60.0)
           (-90.0 90.0)
           (-90.0 90.0)
  end
  begin
     id 26 
     name rradius
     direction -1 -4.48965e-011 1.17607e-026   
     length 3.5699   
     axis -180 30 90   XYZ
    dof rx
    limits (-10.0 170.0)
  end
  begin
     id 27 
     name rwrist
     direction -1 -4.48968e-011 3.32647e-026   
     length 1.78495   
     axis -2.20186e-014 -90 -90   XYZ
    dof ry
    limits (-180.0 0.0)
  end
  begin
     id 28
     name rhand
     direction -1 -4.48995e-011 6.65293e-026   
     length 0.507757   
     axis -4.24514e-014 -90 -90   XYZ
    dof rx rz
    limits (-90.0 90.0)
           (-45.0 45.0)
  end
  begin
     id 29
     name rfingers
     direction -1 -4.48864e-011 1.33059e-025   
     length 0.409367   
     axis -8.49028e-014 -90 -90   XYZ
    dof rx
    limits (0.0 90.0)
  end
  begin
     id 30
     name rthumb
     direction -0.707107 -6.3494e-011 0.707107   
     length 0.587771   
     axis -90 -45 -2.85299e-015   XYZ
    dof rx rz
    limits (-45.0 45.0)
           (-45.0 45.0)
  end
:hierarchy
  begin
    root lhipjoint rhipjoint lowerback
    lhipjoint lfemur
    lfemur ltibia
    ltibia lfoot
    lfoot ltoes
    rhipjoint rfemur
    rfemur rtibia
    rtibia rfoot
    rfoot rtoes
    lowerback upperback
    upperback thorax
    thorax lowerneck lclavicle rclavicle
    lowerneck upperneck
    upperneck head
    lclavicle lhumerus
    lhumerus lradius
    lradius lwrist
    lwrist lhand lthumb
    lhand lfingers
    rclavicle rhumerus
    rhumerus rradius
    rradius rwrist
    rwrist rhand rthumb
    rhand rfingers
  end

#!OML:ASF E:\Steps\Project 1\Capture day 1\Session 2\Subject.ASF
:FULLY-SPECIFIED
:DEGREES
16
root -1.19975 19.6549 20.6518 -153.41 -3.59373 178.401
lowerback -28.4849 -1.76403 -6.61391
upperback -1.60003 -0.782655 -0.612592
thorax 13.3365 -1.0076 2.57822
lowerneck -3.50086 -4.13258 -2.01813
upperneck 9.02183 -5.96346 3.47716
head 3.73994 -2.97067 1.23253
rclavicle 1.25234e-014 -5.1684e-015
rhumerus -39.5275 -21.3071 -76.7865
rradius 32.479
rwrist -4.1171
rhand -4.48772 -58.9635
rfingers 7.12502
rthumb 21.2855 -87.8146
lclavicle 1.25234e-014 -5.1684e-015
lhumerus -27.2065 6.78255 82.2653
lradius 18.8757
lwrist -7.33568
lhand -21.2491 -12.8468
lfingers 7.12502
lthumb 5.13381 17.0711
rfemur -24.2552 6.2242 20.3749
rtibia 7.11393
rfoot -18.0583 -1.28183
rtoes -12.3141
lfemur -23.9491 -7.41452 -22.055
ltibia 6.66131
lfoot -6.76312 -3.48489
ltoes -23.1949
17
root -1.19874 19.6542 20.6521 -153.342 -3.55712 178.421
lowerback -28.5443 -1.76312 -6.61123
upperback -1.63396 -0.788454 -0.599509
thorax 13.3253 -1.01251 2.5871
lowerneck -3.52316 -4.23623 -1.88124
upperneck 8.84434 -6.07332 3.27588
head 3.67112 -3.02418 1.13756
rclavicle 5.96354e-016 6.44062e-014
rhumerus -39.5487 -21.281 -76.7685
rradius 32.4676
rwrist -4.05149
rhand -4.44343 -59.0671
rfingers 7.12502
rthumb 21.3281 -87.9135
lclavicle 5.96354e-016 6.44062e-014
lhumerus -27.2918 6.77089 82.2758
lradius 18.9218
lwrist -7.26171
lhand -21.3138 -12.698
lfingers 7.12502
lthumb 5.07135 17.2213
rfemur -24.3822 6.22693 20.3898
rtibia 7.19368
rfoot -18.3623 -1.49197
rtoes -14.3915
lfemur -24.04 -7.3544 -22.0348
ltibia 6.68433
lfoot -6.78469 -3.48832
ltoes -23.1239
18
root -1.19675 19.6543 20.6491 -153.364 -3.52425 178.453
lowerback -28.5601 -1.73473 -6.60328
upperback -1.63459 -0.752241 -0.608728
thorax 13.3283 -0.99589 2.58617
lowerneck -3.52461 -4.36131 -1.70404
upperneck 8.66635 -6.21786 3.08354
head 3.59772 -3.09409 1.038
rclavicle -7.25564e-015 -3.45885e-014
rhumerus -39.6372 -21.353 -76.7455
rradius 32.4935
rwrist -4.01055
rhand -4.41824 -58.9753
rfingers 7.12502
rthumb 21.3523 -87.8189
lclavicle -7.25564e-015 -3.45885e-014
lhumerus -27.3517 6.58093 82.3205
lradius 18.9917
lwrist -7.09226
lhand -21.3889 -12.6613
lfingers 7.12502
lthumb 4.99884 17.2597
rfemur -24.3732 6.1907 20.4391
rtibia 7.22673
rfoot -17.9478 -1.01711
rtoes -10.5853
lfemur -23.9951 -7.33996 -21.9872
ltibia 6.64959
lfoot -6.73096 -3.40989
ltoes -22.4985
19
root -1.19733 19.6531 20.6464 -153.37 -3.53536 178.446
lowerback -28.5967 -1.72431 -6.59268
upperback -1.61788 -0.734957 -0.62697
thorax 13.3623 -0.987855 2.56646
lowerneck -3.57249 -4.49334 -1.55188
upperneck 8.50025 -6.37072 2.90127
head 3.53883 -3.16778 0.945278
rclavicle 1.8487e-014 1.11319e-014
rhumerus -39.6439 -21.4016 -76.7353
rradius 32.4765
rwrist -4.00454
rhand -4.41476 -58.8832
rfingers 7.12502
rthumb 21.3556 -87.7264
lclavicle 1.8487e-014 1.11319e-014
lhumerus -27.3344 6.58171 82.3213
lradius 18.9353
lwrist -7.14094
lhand -21.5593 -12.8829
lfingers 7.12502
lthumb 4.83434 17.0419
rfemur -24.3389 5.96157 20.4808
rtibia 7.18656
rfoot -17.9243 -0.808001
rtoes -10.3484
lfemur -23.9721 -7.40592 -21.9761
ltibia 6.6413
lfoot -6.69867 -3.3804
ltoes -21.3271
20
root -1.1992 19.6525 20.6469 -153.369 -3.53802 178.384
lowerback -28.5931 -1.75896 -6.62435
upperback -1.60914 -0.767788 -0.640456
thorax 13.3733 -1.00447 2.5565
lowerneck -3.63717 -4.59552 -1.39696
upperneck 8.32947 -6.48093 2.69394
head 3.47891 -3.22098 0.846068
rclavicle 6.06293e-015 -9.14409e-015
rhumerus -39.5787 -21.3554 -76.764
rradius 32.4206
rwrist -4.00834
rhand -4.47341 -58.7507
rfingers 7.12502
rthumb 21.2993 -87.6003
lclavicle 6.06293e-015 -9.14409e-015
lhumerus -27.3368 6.67962 82.2904
lradius 18.8835
lwrist -7.20439
lhand -21.643 -12.9825
lfingers 7.12502
lthumb 4.7535 16.9442
rfemur -24.3246 5.81163 20.4357
rtibia 7.16425
rfoot -18.168 -0.983172
rtoes -12.6243
lfemur -23.9709 -7.42461 -22.0617
ltibia 6.66933
lfoot -6.78197 -3.49731
ltoes -20.4517
21
root -1.19814 19.6548 20.6475 -153.428 -3.53724 178.357
lowerback -28.5181 -1.7884 -6.6656
upperback -1.60408 -0.796086 -0.637556
thorax 13.3474 -1.01787 2.57296
lowerneck -3.66797 -4.69384 -1.17812
upperneck 8.14165 -6.58993 2.46721
head 3.40284 -3.27337 0.731268
rclavicle -5.46658e-015 2.18663e-014
rhumerus -39.5542 -21.351 -76.7779
rradius 32.3779
rwrist -3.99209
rhand -4.53432 -58.5959
rfingers 7.12502
rthumb 21.2408 -87.4521
lclavicle -5.46658e-015 2.18663e-014
lhumerus -27.3605 6.77568 82.2347
lradius 18.8663
lwrist -7.20061
lhand -21.4932 -12.9543
lfingers 7.12502
lthumb 4.89814 16.9691
rfemur -24.2351 5.88842 20.3945
rtibia 7.11863
rfoot -18.3116 -1.22142
rtoes -13.6854
lfemur -23.9071 -7.39218 -22.0995
ltibia 6.68253
lfoot -6.80379 -3.53003
ltoes -20.5277
22
root -1.19541 19.6563 20.6466 -153.469 -3.56122 178.375
lowerback -28.4931 -1.81613 -6.70817
upperback -1.59046 -0.820778 -0.602621
thorax 13.3547 -1.03118 2.62516
lowerneck -3.69629 -4.80133 -0.972686
upperneck 7.95643 -6.71318 2.25645
head 3.32863 -3.33303 0.624157
rclavicle 1.11319e-014 9.14409e-015
rhumerus -39.4913 -21.2845 -76.7929
rradius 32.3244
rwrist -4.08116
rhand -4.58785 -58.6038
rfingers 7.12502
rthumb 21.1894 -87.4657
lclavicle 1.11319e-014 9.14409e-015
lhumerus -27.3532 6.87367 82.2233
lradius 18.8097
lwrist -7.23981
lhand -21.5449 -13.0787
lfingers 7.12502
lthumb 4.84825 16.8459
rfemur -24.1504 6.17116 20.3689
rtibia 7.06297
rfoot -18.3368 -1.54944
rtoes -13.8912
lfemur -23.869 -7.33457 -22.0773
ltibia 6.67902
lfoot -6.77058 -3.50651
ltoes -21.4855
23
root -1.19492 19.6555 20.6462 -153.434 -3.58233 178.413
lowerback -28.5464 -1.8194 -6.69075
upperback -1.59097 -0.831209 -0.572707
thorax 13.3802 -1.03659 2.643
lowerneck -3.73728 -4.913 -0.800129
upperneck 7.77921 -6.84224 2.06137
head 3.26157 -3.39599 0.527742
rclavicle -4.77083e-015 3.26007e-014
rhumerus -39.5057 -21.1564 -76.8093
rradius 32.3766
rwrist -4.21164
rhand -4.64653 -58.6808
rfingers 7.12502
rthumb 21.133 -87.5491
lclavicle -4.77083e-015 3.26007e-014
lhumerus -27.3383 6.88925 82.2601
lradius 18.7318
lwrist -7.28079
lhand -21.7631 -13.2751
lfingers 7.12502
lthumb 4.63749 16.6542
rfemur -24.1928 6.28352 20.3956
rtibia 7.08936
rfoot -18.2139 -1.47531
rtoes -12.707
lfemur -23.9067 -7.34638 -22.0183
ltibia 6.65097
lfoot -6.74713 -3.48923
ltoes -21.3964
24
root -1.19518 19.6539 20.6463 -153.362 -3.59311 178.47
lowerback -28.629 -1.79632 -6.61249
upperback -1.60902 -0.826048 -0.569889
thorax 13.3969 -1.03194 2.60374
lowerneck -3.7617 -5.02703 -0.605986
upperneck 7.59794 -6.97709 1.86591
head 3.18893 -3.46183 0.428475
rclavicle -1.66979e-014 -1.19271e-015
rhumerus -39.6296 -21.1809 -76.8013
rradius 32.5583
rwrist -4.06362
rhand -4.42598 -58.9087
rfingers 7.12502
rthumb 21.3449 -87.7531
lclavicle -1.66979e-014 -1.19271e-015
lhumerus -27.3462 6.75743 82.2986
lradius 18.7003
lwrist -7.25522
lhand -21.967 -13.2594
lfingers 7.12502
lthumb 4.4406 16.6741
rfemur -24.2835 6.24477 20.4662
rtibia 7.09793
rfoot -18.0275 -1.21891
rtoes -11.2988
lfemur -23.9942 -7.37938 -21.9249
ltibia 6.65113
lfoot -6.73806 -3.45238
ltoes -20.8482
